<svg xmlns="http://www.w3.org/2000/svg" xmlns:xlink="http://www.w3.org/1999/xlink" version="1.1" width="256" height="256" viewBox="0 0 256 256" xml:space="preserve">

<defs>
</defs>
<g style="stroke: none; stroke-width: 0; stroke-dasharray: none; stroke-linecap: butt; stroke-linejoin: miter; stroke-miterlimit: 10; fill: none; fill-rule: nonzero; opacity: 1;" transform="translate(1.4065934065934016 1.4065934065934016) scale(2.81 2.81)" >
	<path d="M 89 82.737 l -57.007 0.001 l 10.124 -8.309 l 1.979 2.411 c 0.168 0.205 0.411 0.334 0.675 0.36 c 0.033 0.003 0.065 0.005 0.098 0.005 c 0.23 0 0.455 -0.08 0.634 -0.227 l 42.061 -34.525 c 1.374 -1.128 2.228 -2.725 2.401 -4.495 c 0.174 -1.77 -0.352 -3.502 -1.479 -4.876 L 67.647 7.695 c -1.129 -1.375 -2.725 -2.228 -4.495 -2.402 c -1.766 -0.171 -3.501 0.351 -4.876 1.48 l -42.06 34.524 c -0.427 0.351 -0.489 0.98 -0.139 1.407 l 1.979 2.411 L 2.434 57.938 c -2.837 2.329 -3.251 6.533 -0.922 9.371 l 12.665 15.429 L 1 82.739 c -0.552 0 -1 0.447 -1 1 s 0.448 1 1 1 l 15.29 0 c 0.001 0 0.001 0 0.002 0 h 12.907 c 0.001 0 0.002 -0.001 0.004 -0.001 L 89 84.737 c 0.553 0 1 -0.447 1 -1 S 89.553 82.737 89 82.737 z M 59.546 8.319 c 0.962 -0.79 2.175 -1.162 3.411 -1.035 c 1.238 0.122 2.354 0.719 3.144 1.68 l 20.84 25.388 c 0.789 0.961 1.157 2.173 1.035 3.411 s -0.719 2.355 -1.681 3.145 l -41.287 33.89 l -1.979 -2.411 c 0 0 0 0 0 0 L 20.237 44.62 c 0 0 -0.001 0 -0.001 -0.001 l -1.978 -2.41 L 59.546 8.319 z M 3.058 66.04 c -1.629 -1.984 -1.34 -4.926 0.645 -6.556 l 15.623 -12.823 l 0.564 0.687 l 20.959 25.535 l -12.007 9.856 l -12.077 0 L 3.058 66.04 z" style="stroke: none; stroke-width: 1; stroke-dasharray: none; stroke-linecap: butt; stroke-linejoin: miter; stroke-miterlimit: 10; fill: rgb(0,0,0); fill-rule: nonzero; opacity: 1;" transform=" matrix(1 0 0 1 0 0) " stroke-linecap="round" />
	<path d="M 73.729 34.784 c 0.198 0.241 0.485 0.366 0.774 0.366 c 0.223 0 0.447 -0.074 0.634 -0.227 c 0.427 -0.351 0.488 -0.98 0.139 -1.407 L 64.757 20.701 c -0.351 -0.427 -0.979 -0.49 -1.408 -0.139 c -0.427 0.351 -0.488 0.98 -0.139 1.407 L 73.729 34.784 z" style="stroke: none; stroke-width: 1; stroke-dasharray: none; stroke-linecap: butt; stroke-linejoin: miter; stroke-miterlimit: 10; fill: rgb(0,0,0); fill-rule: nonzero; opacity: 1;" transform=" matrix(1 0 0 1 0 0) " stroke-linecap="round" />
</g>
</svg>